<svg width="21" height="22" viewBox="0 0 21 22" fill="none" xmlns="http://www.w3.org/2000/svg">
<path d="M13.6012 13.6985L20 20.0973M13.303 13.4002C13.9853 12.7307 14.5283 11.9326 14.9004 11.052C15.2725 10.1715 15.4664 9.22588 15.471 8.26992C15.4755 7.31396 15.2906 6.36658 14.9268 5.48251C14.5631 4.59844 14.0278 3.79521 13.3518 3.11924C12.6758 2.44326 11.8726 1.90794 10.9886 1.54421C10.1045 1.18048 9.1571 0.995538 8.20114 1.00008C7.24518 1.00463 6.29959 1.19856 5.41902 1.57068C4.53845 1.94281 3.74035 2.48574 3.07083 3.16811C1.73521 4.52936 0.991017 6.36287 1.00008 8.26992C1.00915 10.177 1.77074 12.0033 3.11924 13.3518C4.46774 14.7003 6.29409 15.4619 8.20114 15.471C10.1082 15.48 11.9417 14.7358 13.303 13.4002Z" stroke="#493254" stroke-width="2" stroke-linecap="round"/>
</svg>
