<svg width="18" height="22" viewBox="0 0 18 22" fill="none" xmlns="http://www.w3.org/2000/svg">
<path d="M10.7988 0.149612C12.5037 0.149692 13.8378 1.8747 13.8379 3.9211V5.2795H17.4502V21.4504H0.149414V5.2795H3.7627V3.9211C3.76274 1.8747 5.0968 0.149612 6.80176 0.149612H10.7988ZM1.72559 19.8244H15.875L15.876 6.90645H1.72559V19.8244ZM6.79688 1.77559C6.42604 1.77559 6.06363 2.00014 5.78809 2.39278C5.51359 2.78401 5.33693 3.3277 5.33691 3.9211V5.2795H12.2529V3.9211C12.2529 3.32747 12.0775 2.7839 11.8037 2.39278C11.529 2.00051 11.1674 1.7757 10.7939 1.77559H6.79688Z" fill="#493254" stroke="#493254" stroke-width="0.3"/>
</svg>
